<svg xmlns="http://www.w3.org/2000/svg" xmlns:xlink="http://www.w3.org/1999/xlink" width="500" zoomAndPan="magnify" viewBox="0 0 375 374.999991" height="500" preserveAspectRatio="xMidYMid meet" version="1.0"><defs><clipPath id="5b722357a4"><path d="M 242.277344 235 L 246.535156 235 L 246.535156 238.648438 L 242.277344 238.648438 Z M 242.277344 235 " clip-rule="nonzero"/></clipPath><clipPath id="2b8a5de905"><path d="M 246.523438 236.25 C 244.648438 239.324219 242.851562 238.726562 242.476562 238.125 C 242.101562 237.449219 242.398438 235.648438 243 235.199219 C 243.601562 234.675781 246 235.351562 246 235.351562 " clip-rule="nonzero"/></clipPath><clipPath id="8785427f8f"><path d="M 0.277344 0 L 4.535156 0 L 4.535156 3.648438 L 0.277344 3.648438 Z M 0.277344 0 " clip-rule="nonzero"/></clipPath><clipPath id="94bce6862e"><path d="M 4.523438 1.25 C 2.648438 4.324219 0.851562 3.726562 0.476562 3.125 C 0.101562 2.449219 0.398438 0.648438 1 0.199219 C 1.601562 -0.324219 4 0.351562 4 0.351562 " clip-rule="nonzero"/></clipPath><clipPath id="e62250a027"><rect x="0" width="5" y="0" height="4"/></clipPath></defs><rect x="-37.5" width="450" fill="#ffffff" y="-37.499999" height="449.999989" fill-opacity="1"/><rect x="-37.5" width="450" fill="#ffffff" y="-37.499999" height="449.999989" fill-opacity="1"/><path fill="#000000" d="M 62.089844 62.089844 C 12.289062 111.875 12.289062 192.734375 62.089844 242.523438 C 111.875 292.320312 192.734375 292.320312 242.523438 242.523438 C 292.320312 192.734375 292.320312 111.875 242.523438 62.089844 C 192.734375 12.289062 111.875 12.289062 62.089844 62.089844 Z M 70.046875 70.046875 C 115.445312 24.644531 189.164062 24.644531 234.566406 70.046875 C 279.96875 115.445312 279.96875 189.164062 234.566406 234.566406 C 189.164062 279.96875 115.445312 279.96875 70.046875 234.566406 C 24.644531 189.164062 24.644531 115.445312 70.046875 70.046875 Z M 70.046875 70.046875 " fill-opacity="1" fill-rule="evenodd"/><path fill="#000000" d="M 87.355469 87.355469 C 51.515625 123.207031 51.515625 181.40625 87.355469 217.257812 C 123.207031 253.097656 181.40625 253.097656 217.257812 217.257812 C 253.097656 181.40625 253.097656 123.207031 217.257812 87.355469 C 181.40625 51.515625 123.207031 51.515625 87.355469 87.355469 Z M 95.3125 95.3125 C 126.765625 63.855469 177.84375 63.855469 209.300781 95.3125 C 240.753906 126.765625 240.753906 177.84375 209.300781 209.300781 C 177.84375 240.753906 126.765625 240.753906 95.3125 209.300781 C 63.855469 177.84375 63.855469 126.765625 95.3125 95.3125 Z M 95.3125 95.3125 " fill-opacity="1" fill-rule="evenodd"/><path fill="#000000" d="M 215.128906 258.367188 C 215.128906 258.367188 270.570312 313.609375 299.742188 342.65625 C 311.597656 354.476562 330.765625 354.453125 342.597656 342.621094 C 342.609375 342.609375 342.609375 342.609375 342.621094 342.597656 C 354.453125 330.765625 354.476562 311.597656 342.667969 299.742188 C 313.855469 270.8125 259.378906 216.140625 259.378906 216.140625 C 257.179688 213.941406 253.621094 213.929688 251.421875 216.128906 C 249.222656 218.316406 249.210938 221.886719 251.398438 224.085938 C 251.398438 224.085938 305.875 278.757812 334.6875 307.6875 C 342.121094 315.132812 342.109375 327.195312 334.664062 334.640625 C 334.652344 334.652344 334.652344 334.652344 334.640625 334.664062 C 327.195312 342.109375 315.132812 342.121094 307.6875 334.6875 C 278.515625 305.628906 223.074219 250.386719 223.074219 250.386719 C 220.875 248.199219 217.300781 248.210938 215.117188 250.410156 C 212.917969 252.609375 212.929688 256.167969 215.128906 258.367188 Z M 215.128906 258.367188 " fill-opacity="1" fill-rule="evenodd"/><g clip-path="url(#5b722357a4)"><g clip-path="url(#2b8a5de905)"><g transform="matrix(1, 0, 0, 1, 242, 235)"><g clip-path="url(#e62250a027)"><g clip-path="url(#8785427f8f)"><g clip-path="url(#94bce6862e)"><rect x="-324.5" width="540" fill="#000000" height="539.999987" y="-317.499998" fill-opacity="1"/></g></g></g></g></g></g></svg>