<?xml version="1.0" encoding="UTF-8"?>
<svg id="Capa_2" data-name="Capa 2" xmlns="http://www.w3.org/2000/svg" viewBox="0 0 1373.83 260.84">
  <g id="Capa_1-2" data-name="Capa 1">
    <g>
      <path d="M308.96,50.53c14.46,0,23.72-11.37,23.72-25.26S323.42,0,308.96,0s-23.72,11.37-23.72,25.26,9.26,25.26,23.72,25.26h0Z" style="fill: #000; stroke-width: 0px;"/>
      <path d="M126.4,217.26c-13.04,6.4-25.09,8.61-38.37,8.61C38.61,225.87,0,185.78,0,136.84S38.61,47.58,88.04,47.58c13.28,0,25.08,2.21,38.37,8.6v54.35c-7.38-10.33-20.41-17.95-35.66-17.95-23.61,0-43.03,20.17-43.03,44.26s18.68,44.26,41.56,44.26c15,0,29.76-8.85,37.14-19.42v55.57h-.02Z" style="fill: #000; stroke-width: 0px;"/>
      <path d="M230.91,181.11c25.33,0,41.56-19.91,41.56-44.26s-16.23-44.26-41.56-44.26-41.56,19.92-41.56,44.26,16.23,44.26,41.56,44.26ZM230.91,47.58c51.64,0,89.27,40.08,89.27,89.27s-37.62,89.27-89.27,89.27-89.27-40.09-89.27-89.27,37.62-89.27,89.27-89.27Z" style="fill: #000; stroke-width: 0px;"/>
      <polygon points="338.86 50.53 376.73 50.53 435.75 110.78 435.75 50.53 480.26 50.53 480.26 228.82 383.37 125.78 383.37 222.67 338.86 222.67 338.86 50.53" style="fill: #000; stroke-width: 0px;"/>
      <path d="M567.56,175.95v-21.64h42.55v20.9c12.29-7.87,19.67-22.13,19.67-38.37,0-24.34-16.23-44.26-41.56-44.26s-41.56,19.92-41.56,44.26c0,16.97,7.62,31.72,20.9,39.1h0ZM588.22,47.58c51.64,0,89.27,40.08,89.27,89.27,0,42.06-27.3,77.46-67.38,86.81v20.04h-42.55v-19.79c-40.82-9.1-68.61-44.51-68.61-87.06,0-49.18,37.62-89.27,89.27-89.27Z" style="fill: #000; stroke-width: 0px;"/>
      <path d="M741.91,50.53v113.36c0,9.59,8.12,17.46,17.71,17.46,10.33,0,17.95-7.87,17.95-17.46V50.53h45.74v113.61c0,34.92-28.28,61.98-63.94,61.98s-62.95-27.06-62.95-61.98V50.53h45.49Z" style="fill: #000; stroke-width: 0px;"/>
      <polygon points="850.36 50.53 962.01 50.53 962.01 94.55 896.35 94.55 896.35 115.95 958.81 115.95 958.81 156.28 896.35 156.28 896.35 178.66 962.99 178.66 962.99 222.68 850.36 222.68 850.36 50.53" style="fill: #000; stroke-width: 0px;"/>
      <path d="M1050.78,93.32h-16.48v44.51h16.48c14.51,0,23.86-9.1,23.86-22.13s-9.35-22.38-23.86-22.38ZM1098,160.21c16.97,9.34,23.61,25.33,23.61,43.77v18.69h-45.99v-14.75c0-16.48-11.81-28.77-29.27-28.77h-12.05v43.53h-45.74V50.53h68.61c35.17,0,64.43,28.53,64.43,63.45,0,21.64-9.35,37.13-23.61,46.23h.01Z" style="fill: #000; stroke-width: 0px;"/>
      <path d="M1184.83,122.02c-7.01,5.88-17.43,4.86-23.18-2.27L1065.1,0h90.01l66.75,84.24s11.2,15.2,31.01,14.76c19.81-.43,27.99-14.33,27.99-14.33l52.54-66h-44.36l-50.82,60.36-12.06-9.99L1280.87,0h90.44l-76.23,96.4s-16.8,21.71-40.91,21.71-42.85-18.89-47.37-23.45l-59.43-77.29-43.5,1.3,80.97,103.34h-.01Z" style="fill: #000; stroke-width: 0px;"/>
      <path d="M1254.1,138.83c7.01-5.88,17.43-4.86,23.18,2.27l96.55,119.74h-90.01l-66.75-84.24s-11.2-15.2-31.01-14.76c-19.81.43-27.99,14.33-27.99,14.33l-52.54,66h44.36l50.82-60.36,12.06,9.99-54.7,69.04h-90.44l76.23-96.4s16.8-21.71,40.91-21.71,42.85,18.89,47.37,23.45l59.43,77.29,43.5-1.3-80.97-103.34Z" style="fill: #000; stroke-width: 0px;"/>
    </g>
  </g>
</svg>