<?xml version="1.0" encoding="UTF-8"?>
<svg id="Capa_2" data-name="Capa 2" xmlns="http://www.w3.org/2000/svg" xmlns:xlink="http://www.w3.org/1999/xlink" viewBox="0 0 1237.33 143.04">
  <defs>
    <linearGradient id="Degradado_sin_nombre_2" data-name="Degradado sin nombre 2" x1="793.06" y1="-4171.82" x2="1114.93" y2="-4501.98" gradientTransform="translate(0 -4261.09) scale(1 -1)" gradientUnits="userSpaceOnUse">
      <stop offset="0" stop-color="#e8e45b"/>
      <stop offset="1" stop-color="#79b4e2"/>
    </linearGradient>
  </defs>
  <g id="Capa_1-2" data-name="Capa 1">
    <g>
      <path d="M181.35,29.66c8.49,0,13.92-6.67,13.92-14.83s-5.44-14.83-13.92-14.83-13.92,6.67-13.92,14.83,5.44,14.83,13.92,14.83h0Z" style="fill: #232323; stroke-width: 0px;"/>
      <path d="M74.19,127.52c-7.65,3.76-14.73,5.05-22.52,5.05C22.66,132.58,0,109.04,0,80.32S22.66,27.93,51.68,27.93c7.79,0,14.72,1.3,22.52,5.05v31.9c-4.33-6.06-11.98-10.54-20.93-10.54-13.86,0-25.26,11.84-25.26,25.98s10.96,25.98,24.39,25.98c8.8,0,17.47-5.19,21.8-11.4v32.62h-.01Z" style="fill: #232323; stroke-width: 0px;"/>
      <path d="M135.53,106.3c14.87,0,24.39-11.69,24.39-25.98s-9.53-25.98-24.39-25.98-24.39,11.69-24.39,25.98,9.53,25.98,24.39,25.98ZM135.53,27.93c30.31,0,52.4,23.53,52.4,52.4s-22.08,52.4-52.4,52.4-52.4-23.53-52.4-52.4,22.08-52.4,52.4-52.4Z" style="fill: #232323; stroke-width: 0px;"/>
      <polygon points="198.9 29.66 221.12 29.66 255.77 65.02 255.77 29.66 281.89 29.66 281.89 134.31 225.02 73.83 225.02 130.7 198.9 130.7 198.9 29.66" style="fill: #232323; stroke-width: 0px;"/>
      <path d="M333.13,103.27v-12.7h24.97v12.27c7.21-4.62,11.55-12.99,11.55-22.52,0-14.29-9.53-25.98-24.39-25.98s-24.39,11.69-24.39,25.98c0,9.96,4.47,18.62,12.27,22.95h0ZM345.26,27.93c30.31,0,52.4,23.53,52.4,52.4,0,24.69-16.02,45.47-39.55,50.95v11.76h-24.97v-11.62c-23.96-5.34-40.27-26.13-40.27-51.1,0-28.87,22.08-52.4,52.4-52.4Z" style="fill: #232323; stroke-width: 0px;"/>
      <path d="M435.47,29.66v66.54c0,5.63,4.77,10.25,10.39,10.25,6.06,0,10.54-4.62,10.54-10.25V29.66h26.85v66.68c0,20.5-16.6,36.38-37.53,36.38s-36.95-15.88-36.95-36.38V29.66h26.7Z" style="fill: #232323; stroke-width: 0px;"/>
      <polygon points="499.12 29.66 564.66 29.66 564.66 55.5 526.12 55.5 526.12 68.06 562.78 68.06 562.78 91.73 526.12 91.73 526.12 104.87 565.23 104.87 565.23 130.7 499.12 130.7 499.12 29.66" style="fill: #232323; stroke-width: 0px;"/>
      <path d="M616.76,54.77h-9.67v26.13h9.67c8.52,0,14-5.34,14-12.99s-5.49-13.14-14-13.14ZM644.48,94.04c9.96,5.48,13.86,14.87,13.86,25.69v10.97h-26.99v-8.66c0-9.67-6.93-16.89-17.18-16.89h-7.07v25.55h-26.85V29.66h40.27c20.64,0,37.82,16.75,37.82,37.24,0,12.7-5.49,21.79-13.86,27.13h0Z" style="fill: #232323; stroke-width: 0px;"/>
    </g>
    <g>
      <rect x="678.17" y="22.74" width="559.16" height="113.87" style="fill: url(#Degradado_sin_nombre_2); stroke-width: 0px;"/>
      <g>
        <path d="M913.17,131.66c-29.36.01-51.96-22.51-52.01-51.75-.05-29.41,22.79-52.33,52.47-52.06,29.52.27,51.65,23.52,51.42,52.52-.22,28.76-22.81,51.28-51.88,51.29ZM937.34,78.19c-.35-1.69-.69-5.03-1.76-8.12-2.88-8.31-8.64-13.79-17.38-15.49-8.84-1.72-16.81.32-22.87,7.29-6.24,7.17-7.71,15.74-5.57,24.78,4.75,19.98,25.83,22.86,37.26,14.52,7.21-5.26,10-12.7,10.31-22.97Z" style="fill: #fff; stroke-width: 0px;"/>
        <path d="M704.18,29.61h1.85c12.95,0,25.89,0,38.84,0,15.89.01,29.22,12.81,29.98,28.67.3,6.33-1.98,11.69-5.68,16.61-.39.52-.82,1.01-1.3,1.58,3.1,2.69,5.62,5.82,7.2,9.59,4.9,11.7,2.78,22.43-5.14,31.99-6.5,7.85-15.14,11.59-25.35,11.6-12.85.01-25.69,0-38.54,0h-1.87V29.61ZM730.19,104.64c4.55,0,9.01,0,13.47,0,.15,0,.29-.07.44-.11,3.72-.99,6.34-4.82,5.87-8.58-.51-4.06-3.76-7.08-7.85-7.16-3.32-.07-6.64-.02-9.96-.02-.64,0-1.28,0-1.98,0v15.88ZM730.19,54.57v12.22c.22.07.36.16.5.16,3.42.01,6.84.04,10.26.02,3.3-.02,5.81-2.28,6.11-5.47.32-3.36-1.73-6.58-4.95-6.85-3.93-.33-7.91-.08-11.93-.08Z" style="fill: #fff; stroke-width: 0px;"/>
        <path d="M1058.51,29.7h26.64v30.17l.34.13c.32-.46.64-.92.94-1.39,5.86-9.21,11.74-18.41,17.56-27.65.65-1.03,1.35-1.37,2.54-1.37,9.37.05,18.74.03,28.11.03h2.02c-.58.83-.95,1.39-1.34,1.93-9.52,13.3-19.03,26.61-28.59,39.88-.73,1.02-.72,1.7-.11,2.76,10.41,17.92,20.77,35.86,31.14,53.8.27.46.5.94.85,1.59-.63.03-1.07.07-1.5.07-9.97,0-19.95-.02-29.92.03-1.15,0-1.67-.43-2.17-1.39-5.37-10.3-10.79-20.57-16.19-30.85-.16-.31-.36-.6-.66-1.11-1.36,2.18-3.08,3.81-3.01,6.69.2,8.25.07,16.51.07,24.77v1.75h-26.72V29.7Z" style="fill: #fff; stroke-width: 0px;"/>
        <path d="M1145.95,103.64h2.03c11.84,0,23.68,0,35.52,0,2.04,0,3.91-.42,5.4-1.9,1.48-1.46,2.07-3.27,1.51-5.25-.63-2.26-2.29-3.63-4.54-4.21-.77-.2-1.6-.18-2.4-.2-5.28-.13-10.63.22-15.84-.45-13.05-1.7-23.73-12.24-26.08-25.11-3.24-17.74,8.48-34.07,26.33-36.69.99-.15,2.01-.21,3.01-.21,11.49-.01,22.98,0,34.46,0,.4,0,.8.03,1.32.06v25.45c-.61,0-1.2,0-1.79,0-10.23,0-20.46-.01-30.68,0-3.6,0-6,2.1-6.15,5.3-.16,3.39,2.07,5.82,5.47,5.86,4.23.05,8.46.01,12.7.01,16.25,0,29.64,11.78,31.69,27.88,2.17,17.02-11.11,33.62-28.23,35.28-1.25.12-2.51.19-3.77.19-12.7.01-25.39,0-38.09,0h-1.89v-26.02Z" style="fill: #fff; stroke-width: 0px;"/>
        <path d="M1044.42,64.24c-4.31-5.39-9.55-8.65-16.02-9.77-13.3-2.31-26,6.25-28.94,19.43-2.87,12.88,3.96,26.08,15.88,30.2,9.8,3.38,18.28.41,25.81-6.11,1.13-.98,2.09-2.16,3.25-3.38.04.47.11.83.11,1.2,0,9.82-.01,19.63.03,29.45,0,1.01-.32,1.48-1.23,1.9-21.82,9.93-51.56,3.42-65.64-21.78-14.3-25.59-5.06-57.91,20.69-71.57,14.54-7.71,29.66-8.02,44.86-1.59.77.33,1.33.62,1.32,1.69-.05,9.77-.03,19.53-.03,29.3,0,.24-.04.47-.09,1.04Z" style="fill: #fff; stroke-width: 0px;"/>
        <path d="M791.84,129.58V29.71h26.7v75.26h35.66v24.6h-62.36Z" style="fill: #fff; stroke-width: 0px;"/>
      </g>
    </g>
  </g>
</svg>