<svg xmlns="http://www.w3.org/2000/svg" xmlns:xlink="http://www.w3.org/1999/xlink" width="500" zoomAndPan="magnify" viewBox="0 0 375 374.999991" height="500" preserveAspectRatio="xMidYMid meet" version="1.0"><defs><clipPath id="5303f0af26"><path d="M 102.398438 44 L 360.632812 44 L 360.632812 102 L 102.398438 102 Z M 102.398438 44 " clip-rule="nonzero"/></clipPath><clipPath id="6b9f6fe26b"><path d="M 102.398438 158 L 360.632812 158 L 360.632812 216.574219 L 102.398438 216.574219 Z M 102.398438 158 " clip-rule="nonzero"/></clipPath><clipPath id="169580b9f4"><path d="M 102.398438 273 L 360.632812 273 L 360.632812 331 L 102.398438 331 Z M 102.398438 273 " clip-rule="nonzero"/></clipPath><clipPath id="af173d1f56"><path d="M 14.300781 158 L 72 158 L 72 217 L 14.300781 217 Z M 14.300781 158 " clip-rule="nonzero"/></clipPath><clipPath id="3ad0ab87f7"><path d="M 14.300781 43.585938 L 72 43.585938 L 72 102 L 14.300781 102 Z M 14.300781 43.585938 " clip-rule="nonzero"/></clipPath><clipPath id="6346b723e4"><path d="M 14.300781 273 L 72 273 L 72 331.351562 L 14.300781 331.351562 Z M 14.300781 273 " clip-rule="nonzero"/></clipPath><clipPath id="8fcbb4e2b2"><path d="M 49.640625 193.9375 L 53.9375 193.9375 L 53.9375 197.621094 L 49.640625 197.621094 Z M 49.640625 193.9375 " clip-rule="nonzero"/></clipPath><clipPath id="cbfcd48a3a"><path d="M 53.925781 195.226562 C 51.976562 198.300781 50.175781 197.699219 49.800781 197.101562 C 49.425781 196.425781 49.800781 194.625 50.324219 194.175781 C 50.925781 193.648438 53.324219 194.324219 53.324219 194.324219 " clip-rule="nonzero"/></clipPath><clipPath id="624ad0766f"><path d="M 0.640625 0.9375 L 4.9375 0.9375 L 4.9375 4.621094 L 0.640625 4.621094 Z M 0.640625 0.9375 " clip-rule="nonzero"/></clipPath><clipPath id="e94bed4332"><path d="M 4.925781 2.226562 C 2.976562 5.300781 1.175781 4.699219 0.800781 4.101562 C 0.425781 3.425781 0.800781 1.625 1.324219 1.175781 C 1.925781 0.648438 4.324219 1.324219 4.324219 1.324219 " clip-rule="nonzero"/></clipPath><clipPath id="1eb41cf8b3"><rect x="0" width="5" y="0" height="5"/></clipPath><clipPath id="1ce1273a38"><path d="M 47.390625 179.765625 L 51.6875 179.765625 L 51.6875 183.371094 L 47.390625 183.371094 Z M 47.390625 179.765625 " clip-rule="nonzero"/></clipPath><clipPath id="5fbe406306"><path d="M 51.675781 181.050781 C 49.726562 184.050781 48 183.523438 47.550781 182.851562 C 47.175781 182.25 47.550781 180.375 48.148438 179.925781 C 48.675781 179.476562 51.074219 180.148438 51.074219 180.148438 " clip-rule="nonzero"/></clipPath><clipPath id="2ee5ff03b8"><path d="M 0.390625 0.765625 L 4.6875 0.765625 L 4.6875 4.371094 L 0.390625 4.371094 Z M 0.390625 0.765625 " clip-rule="nonzero"/></clipPath><clipPath id="ad0b41430f"><path d="M 4.675781 2.050781 C 2.726562 5.050781 1 4.523438 0.550781 3.851562 C 0.175781 3.25 0.550781 1.375 1.148438 0.925781 C 1.675781 0.476562 4.074219 1.148438 4.074219 1.148438 " clip-rule="nonzero"/></clipPath><clipPath id="6cdb7d454f"><rect x="0" width="5" y="0" height="5"/></clipPath><clipPath id="18dbf0ebf2"><path d="M 41.386719 179.765625 L 45.6875 179.765625 L 45.6875 183.371094 L 41.386719 183.371094 Z M 41.386719 179.765625 " clip-rule="nonzero"/></clipPath><clipPath id="7d66a36a14"><path d="M 45.675781 181.050781 C 43.800781 184.050781 42 183.523438 41.625 182.851562 C 41.175781 182.25 41.550781 180.375 42.148438 179.925781 C 42.75 179.476562 45.074219 180.148438 45.074219 180.148438 " clip-rule="nonzero"/></clipPath><clipPath id="85751ff115"><path d="M 0.386719 0.765625 L 4.6875 0.765625 L 4.6875 4.371094 L 0.386719 4.371094 Z M 0.386719 0.765625 " clip-rule="nonzero"/></clipPath><clipPath id="7aa8a37f8f"><path d="M 4.675781 2.050781 C 2.800781 5.050781 1 4.523438 0.625 3.851562 C 0.175781 3.25 0.550781 1.375 1.148438 0.925781 C 1.75 0.476562 4.074219 1.148438 4.074219 1.148438 " clip-rule="nonzero"/></clipPath><clipPath id="e3ceec096a"><rect x="0" width="5" y="0" height="5"/></clipPath><clipPath id="a007ef27f1"><path d="M 38.800781 187.226562 L 43.0625 187.226562 L 43.0625 190.871094 L 38.800781 190.871094 Z M 38.800781 187.226562 " clip-rule="nonzero"/></clipPath><clipPath id="b48af5ce79"><path d="M 43.050781 188.550781 C 41.175781 191.550781 39.375 190.949219 39 190.351562 C 38.625 189.675781 38.925781 187.875 39.523438 187.425781 C 40.125 186.976562 42.523438 187.574219 42.523438 187.574219 " clip-rule="nonzero"/></clipPath><clipPath id="a111d120f6"><path d="M 0.800781 0.226562 L 5.0625 0.226562 L 5.0625 3.871094 L 0.800781 3.871094 Z M 0.800781 0.226562 " clip-rule="nonzero"/></clipPath><clipPath id="2afab1313d"><path d="M 5.050781 1.550781 C 3.175781 4.550781 1.375 3.949219 1 3.351562 C 0.625 2.675781 0.925781 0.875 1.523438 0.425781 C 2.125 -0.0234375 4.523438 0.574219 4.523438 0.574219 " clip-rule="nonzero"/></clipPath><clipPath id="0e75e8b7a7"><rect x="0" width="6" y="0" height="4"/></clipPath></defs><g clip-path="url(#5303f0af26)"><path fill="#1e1e1e" d="M 332.003906 101.453125 L 131.21875 101.453125 C 115.398438 101.453125 102.578125 88.617188 102.578125 72.78125 C 102.578125 56.945312 115.398438 44.105469 131.21875 44.105469 L 332.003906 44.105469 C 347.820312 44.105469 360.640625 56.945312 360.640625 72.78125 C 360.640625 88.617188 347.820312 101.453125 332.003906 101.453125 " fill-opacity="1" fill-rule="nonzero"/></g><g clip-path="url(#6b9f6fe26b)"><path fill="#1e1e1e" d="M 332.003906 216.148438 L 131.21875 216.148438 C 115.398438 216.148438 102.578125 203.3125 102.578125 187.472656 C 102.578125 171.636719 115.398438 158.800781 131.21875 158.800781 L 332.003906 158.800781 C 347.820312 158.800781 360.640625 171.636719 360.640625 187.472656 C 360.640625 203.3125 347.820312 216.148438 332.003906 216.148438 " fill-opacity="1" fill-rule="nonzero"/></g><g clip-path="url(#169580b9f4)"><path fill="#1e1e1e" d="M 332.003906 330.839844 L 131.21875 330.839844 C 115.398438 330.839844 102.578125 318.003906 102.578125 302.167969 C 102.578125 286.328125 115.398438 273.492188 131.21875 273.492188 L 332.003906 273.492188 C 347.820312 273.492188 360.640625 286.328125 360.640625 302.167969 C 360.640625 318.003906 347.820312 330.839844 332.003906 330.839844 " fill-opacity="1" fill-rule="nonzero"/></g><g clip-path="url(#af173d1f56)"><path fill="#1e1e1e" d="M 43.027344 216.402344 C 27.074219 216.402344 14.132812 203.453125 14.132812 187.472656 C 14.132812 171.492188 27.074219 158.542969 43.027344 158.542969 C 58.988281 158.542969 71.925781 171.492188 71.925781 187.472656 C 71.925781 203.453125 58.988281 216.402344 43.027344 216.402344 " fill-opacity="1" fill-rule="nonzero"/></g><g clip-path="url(#3ad0ab87f7)"><path fill="#1e1e1e" d="M 43.027344 101.714844 C 27.074219 101.714844 14.132812 88.757812 14.132812 72.78125 C 14.132812 56.800781 27.074219 43.851562 43.027344 43.851562 C 58.988281 43.851562 71.925781 56.800781 71.925781 72.78125 C 71.925781 88.757812 58.988281 101.714844 43.027344 101.714844 " fill-opacity="1" fill-rule="nonzero"/></g><g clip-path="url(#6346b723e4)"><path fill="#1e1e1e" d="M 43.027344 331.351562 C 27.074219 331.351562 14.132812 318.402344 14.132812 302.421875 C 14.132812 286.445312 27.074219 273.492188 43.027344 273.492188 C 58.988281 273.492188 71.925781 286.445312 71.925781 302.421875 C 71.925781 318.402344 58.988281 331.351562 43.027344 331.351562 " fill-opacity="1" fill-rule="nonzero"/></g><g clip-path="url(#8fcbb4e2b2)"><g clip-path="url(#cbfcd48a3a)"><g transform="matrix(1, 0, 0, 1, 49, 193)"><g clip-path="url(#1eb41cf8b3)"><g clip-path="url(#624ad0766f)"><g clip-path="url(#e94bed4332)"><rect x="-131.5" width="540" fill="#1e1e1e" height="539.999987" y="-275.499998" fill-opacity="1"/></g></g></g></g></g></g><g clip-path="url(#1ce1273a38)"><g clip-path="url(#5fbe406306)"><g transform="matrix(1, 0, 0, 1, 47, 179)"><g clip-path="url(#6cdb7d454f)"><g clip-path="url(#2ee5ff03b8)"><g clip-path="url(#ad0b41430f)"><rect x="-129.5" width="540" fill="#1e1e1e" height="539.999987" y="-261.499998" fill-opacity="1"/></g></g></g></g></g></g><g clip-path="url(#18dbf0ebf2)"><g clip-path="url(#7d66a36a14)"><g transform="matrix(1, 0, 0, 1, 41, 179)"><g clip-path="url(#e3ceec096a)"><g clip-path="url(#85751ff115)"><g clip-path="url(#7aa8a37f8f)"><rect x="-123.5" width="540" fill="#1e1e1e" height="539.999987" y="-261.499998" fill-opacity="1"/></g></g></g></g></g></g><g clip-path="url(#a007ef27f1)"><g clip-path="url(#b48af5ce79)"><g transform="matrix(1, 0, 0, 1, 38, 187)"><g clip-path="url(#0e75e8b7a7)"><g clip-path="url(#a111d120f6)"><g clip-path="url(#2afab1313d)"><rect x="-120.5" width="540" fill="#1e1e1e" height="539.999987" y="-269.499998" fill-opacity="1"/></g></g></g></g></g></g></svg>